<svg width="160" height="158" viewBox="0 0 160 158" fill="none" xmlns="http://www.w3.org/2000/svg">
<path fill-rule="evenodd" clip-rule="evenodd" d="M109 66.5C109 89.9721 89.9721 109 66.5 109C43.0279 109 24 89.9721 24 66.5C24 43.0279 43.0279 24 66.5 24C89.9721 24 109 43.0279 109 66.5ZM105.565 120.322C94.597 128.296 81.0978 133 66.5 133C29.7731 133 0 103.227 0 66.5C0 29.7731 29.7731 0 66.5 0C103.227 0 133 29.7731 133 66.5C133 79.9569 129.003 92.4802 122.131 102.948L156.092 136.908C160.778 141.594 160.778 149.192 156.092 153.879C151.405 158.565 143.807 158.565 139.121 153.879L105.565 120.322Z" fill="#513E2D"/>
</svg>
