<svg width="800" height="800" viewBox="0 0 800 800" fill="none" xmlns="http://www.w3.org/2000/svg">
<g clip-path="url(#clip0_35_2)">
<path d="M622.236 368.784L266.225 12.7804C257.991 4.5398 247 0 235.279 0C223.559 0 212.567 4.5398 204.333 12.7804L178.116 38.9916C161.056 56.0711 161.056 83.8302 178.116 100.884L477.066 399.834L177.784 699.116C169.55 707.357 165.004 718.342 165.004 730.056C165.004 741.783 169.55 752.768 177.784 761.015L204.002 787.22C212.242 795.46 223.227 800 234.948 800C246.668 800 257.66 795.46 265.894 787.22L622.236 430.891C630.489 422.624 635.022 411.587 634.996 399.854C635.022 388.075 630.489 377.044 622.236 368.784Z" fill="#AA182C"/>
</g>
<defs>
<clipPath id="clip0_35_2">
<rect width="800" height="800" fill="white"/>
</clipPath>
</defs>
</svg>
